<svg xmlns="http://www.w3.org/2000/svg" viewBox="0 0 512 512" style="height: 512px; width: 512px;"><defs><linearGradient id="lorc-spartan-gradient-12"><stop offset="0%" stop-color="#653e1c" stop-opacity="1"></stop><stop offset="100%" stop-color="#432e0c" stop-opacity="1"></stop></linearGradient><linearGradient id="lorc-spartan-gradient-13"><stop offset="0%" stop-color="#432e0c" stop-opacity="1"></stop><stop offset="100%" stop-color="#653e1c" stop-opacity="1"></stop></linearGradient><radialGradient id="lorc-spartan-gradient-14"><stop offset="0%" stop-color="#7b4c22" stop-opacity="1"></stop><stop offset="100%" stop-color="#4e3016" stop-opacity="1"></stop></radialGradient></defs><g class="" transform="translate(0,0)" style=""><g><path d="M81.375 21.313L74.155 145.563L110.531 167.813L111.345 214.188L122.251 211.281L201.971 506.531L220.001 501.657L140.312 206.5L151.125 203.625L129.095 164.125L150.188 125.312L81.375 21.312Z" class="selected" fill="#c9c9c9" fill-opacity="1"></path><path d="M271.53 23L241.438 26.125L262 88.28C245.16 92.852 231.43 109.13 225.625 130.656L269.531 141.969L318.157 131.437C312.297 109.445 298.274 92.757 281.095 88.217L301.657 26.124L271.53 23Z" class="" fill="#1871d3" fill-opacity="1"></path><path d="M222.78 149.22C222.705 150.778 222.653 152.35 222.656 153.938C222.726 186.024 239.324 212.858 261.436 219.5L261.438 159.187L222.781 149.219Z" class="" fill="#4a90e2" fill-opacity="1"></path><path d="M321 149.938L280.125 158.813L280.125 220.188C303.448 214.978 321.197 187.436 321.125 154.156C321.122 152.741 321.065 151.331 321 149.936Z" class="" fill="#4a90e2" fill-opacity="1"></path><path d="M352.875 221.063C278.448 221.063 217.905 281.603 217.905 356.031C217.905 430.461 278.448 490.971 352.875 490.971C427.302 490.971 487.813 430.461 487.813 356.031C487.813 281.605 427.303 221.064 352.875 221.064Z" class="" fill="#1871d3" fill-opacity="1"></path><path d="M352.875 239.75C417.202 239.75 469.125 291.704 469.125 356.03C469.125 420.358 417.202 472.28 352.875 472.28C288.548 472.28 236.595 420.358 236.595 356.03C236.595 291.704 288.548 239.75 352.875 239.75Z" class="" fill="#4a90e2" fill-opacity="1"></path><path d="M351.5 260.28C298.59 260.28 255.687 303.153 255.687 356.063C255.687 408.973 298.591 451.875 351.5 451.875C404.41 451.875 447.28 408.972 447.28 356.062C447.28 303.152 404.41 260.282 351.5 260.282Z" class="" fill="#42acec" fill-opacity="1"></path></g></g></svg>