<svg xmlns="http://www.w3.org/2000/svg" viewBox="0 0 512 512" style="height: 512px; width: 512px;"><defs><linearGradient id="skoll-pteruges-gradient-12"><stop offset="0%" stop-color="#653e1c" stop-opacity="1"></stop><stop offset="100%" stop-color="#432e0c" stop-opacity="1"></stop></linearGradient><linearGradient id="skoll-pteruges-gradient-13"><stop offset="0%" stop-color="#432e0c" stop-opacity="1"></stop><stop offset="100%" stop-color="#653e1c" stop-opacity="1"></stop></linearGradient><radialGradient id="skoll-pteruges-gradient-14"><stop offset="0%" stop-color="#7b4c22" stop-opacity="1"></stop><stop offset="100%" stop-color="#4e3016" stop-opacity="1"></stop></radialGradient></defs><g class="" transform="translate(0,0)" style=""><g><path d="M70.392 399.79L100.365 433.42L130.338 399.79L130.338 132.6L70.434 132.6L70.434 399.79Z" class="" fill="#432e0c" fill-opacity="1"></path><path d="M100.365 375.04C110.882 375.04 117.455 386.425 112.197 395.533C106.938 404.641 93.792 404.641 88.533 395.533C87.334 393.456 86.703 391.101 86.703 388.703C86.697 381.157 92.809 375.036 100.355 375.03Z" class="selected" fill="#c0b413" fill-opacity="1"></path><path d="M381.65 132.6L381.65 399.79L411.624 433.42L441.597 399.79L441.597 132.6L381.693 132.6Z" class="" fill="#432e0c" fill-opacity="1"></path><path d="M411.624 402.357C401.107 402.356 394.535 390.971 399.794 381.863C405.053 372.755 418.199 372.757 423.457 381.865C424.656 383.942 425.287 386.297 425.287 388.695C425.287 396.241 419.17 402.358 411.624 402.357Z" class="" fill="#c0b413" fill-opacity="1"></path><path d="M303.84 145.925L303.84 431.34L333.812 464.97L363.785 431.34L363.785 132.598L317.05 132.598C313.201 137.564 308.766 142.045 303.84 145.945Z" class="" fill="#432e0c" fill-opacity="1"></path><path d="M333.812 406.559C344.329 406.559 350.902 417.944 345.644 427.052C340.385 436.16 327.239 436.16 321.98 427.052C320.781 424.975 320.15 422.618 320.15 420.219C320.162 412.703 326.244 406.608 333.76 406.579Z" class="" fill="#c0b413" fill-opacity="1"></path><path d="M226.016 156.559L226.016 452.369L255.99 486L285.963 452.37L285.963 156.56C266.796 164.632 245.183 164.632 226.016 156.56Z" class="" fill="#432e0c" fill-opacity="1"></path><path d="M269.652 441.281C269.652 451.798 258.267 458.371 249.159 453.113C240.051 447.854 240.051 434.708 249.159 429.449C251.236 428.25 253.591 427.619 255.989 427.619C263.534 427.619 269.651 433.736 269.651 441.281Z" class="" fill="#c0b413" fill-opacity="1"></path><path d="M194.93 132.598L148.204 132.598L148.204 431.34L178.177 464.97L208.15 431.34L208.15 145.945C203.221 142.046 198.782 137.564 194.93 132.598Z" class="" fill="#432e0c" fill-opacity="1"></path><path d="M178.22 433.904C167.703 433.904 161.13 422.519 166.388 413.411C171.647 404.303 184.793 404.303 190.052 413.411C191.251 415.488 191.882 417.844 191.882 420.242C191.882 427.788 185.765 433.905 178.219 433.904Z" class="" fill="#c0b413" fill-opacity="1"></path><path d="M333.233 85.368C333.237 75.921 331.499 66.554 328.105 57.738L441.607 57.738L441.607 114.721L327.454 114.721C331.286 105.41 333.25 95.437 333.234 85.369Z" class="" fill="url(#skoll-pteruges-gradient-12)"></path><path d="M70.392 57.738L183.894 57.738C176.829 76.121 177.073 96.513 184.578 114.721L70.392 114.721L70.392 57.74Z" class="" fill="url(#skoll-pteruges-gradient-13)"></path><path d="M255.989 144.736C210.287 144.736 181.724 95.263 204.575 55.684C227.426 16.105 284.552 16.105 307.403 55.684C312.614 64.709 315.357 74.947 315.357 85.368C315.357 118.157 288.776 144.737 255.987 144.736Z" class="" fill="url(#skoll-pteruges-gradient-14)"></path></g></g></svg>