<svg xmlns="http://www.w3.org/2000/svg" viewBox="0 0 512 512" style="height: 512px; width: 512px;"><defs><linearGradient x1="0" x2="0" y1="0" y2="1" id="lorc-crested-helmet-gradient-2"><stop offset="0%" stop-color="#d0021b" stop-opacity="1"></stop><stop offset="100%" stop-color="#8b572a" stop-opacity="1"></stop></linearGradient><linearGradient x1="0" x2="0" y1="0" y2="1" id="lorc-crested-helmet-gradient-3"><stop offset="0%" stop-color="#b6b6b6" stop-opacity="1"></stop><stop offset="100%" stop-color="#4a4a4a" stop-opacity="1"></stop></linearGradient><linearGradient x1="0" x2="0" y1="0" y2="1" id="lorc-crested-helmet-gradient-4"><stop offset="0%" stop-color="#4a4a4a" stop-opacity="1"></stop><stop offset="100%" stop-color="#b6b6b6" stop-opacity="1"></stop></linearGradient><linearGradient id="lorc-crested-helmet-gradient-12"><stop offset="0%" stop-color="#653e1c" stop-opacity="1"></stop><stop offset="100%" stop-color="#432e0c" stop-opacity="1"></stop></linearGradient><linearGradient id="lorc-crested-helmet-gradient-13"><stop offset="0%" stop-color="#432e0c" stop-opacity="1"></stop><stop offset="100%" stop-color="#653e1c" stop-opacity="1"></stop></linearGradient><radialGradient id="lorc-crested-helmet-gradient-14"><stop offset="0%" stop-color="#7b4c22" stop-opacity="1"></stop><stop offset="100%" stop-color="#4e3016" stop-opacity="1"></stop></radialGradient></defs><g class="" transform="translate(0,0)" style=""><g><path d="M207.47 18.875L243.438 181.125C243.728 182.212 244.298 182.988 246 183.938C247.7 184.888 250.433 185.598 253.22 185.594C256.005 185.591 258.763 184.891 260.47 183.938C262.174 182.984 262.746 182.188 263.03 181.125L299 18.875L207.47 18.875Z" class="" fill="url(#lorc-crested-helmet-gradient-2)"></path><path d="M296.406 116.905L281.186 185.562L281.126 185.782L281.094 185.969C279.347 192.489 274.69 197.401 269.594 200.249C264.498 203.097 258.856 204.275 253.25 204.279C247.644 204.286 242.01 203.129 236.906 200.279C231.802 197.432 227.124 192.495 225.376 185.969L225.344 185.779L225.281 185.561L210.595 119.343C175 133.818 147.157 164.56 135.53 202.97C143.574 207.22 154.784 212.81 167.844 218.438C194.371 229.868 228.35 240.988 256.344 240.844C284.347 240.699 318.154 229.284 344.5 217.624C357.967 211.664 369.414 205.752 377.438 201.374C364.814 161.406 334.585 129.976 296.406 116.906Z" class="" fill="url(#lorc-crested-helmet-gradient-3)"></path><path d="M385.376 218.281C377.011 222.819 365.511 228.768 352.063 234.721C324.541 246.901 289.266 259.394 256.438 259.564C223.6 259.734 188.145 247.564 160.438 235.626C146.824 229.76 135.162 223.882 126.718 219.406C126.208 289.891 123.071 358.046 136.344 407.782C143.479 434.519 155.027 455.656 173.719 470.377C185.811 479.902 201.162 486.961 220.969 490.752L220.969 330.125C192.315 346.245 153.122 332.935 139.905 299.5C148.73 277.178 170.032 266.426 190.685 266.5C215.268 266.587 238.909 282.032 239.561 311.594L239.655 311.594L239.655 400.594L275.685 400.594L275.687 312.874C275.677 312.864 275.664 312.856 275.655 312.844C275.655 312.422 275.677 312.01 275.685 311.594C276.34 282.032 300.012 266.587 324.593 266.5C345.247 266.426 366.519 277.178 375.343 299.5C362.139 332.903 323.019 346.202 294.373 330.156L294.373 490.626C313.917 486.759 328.973 479.626 340.811 470.031C359.207 455.123 370.411 433.694 377.186 406.689C389.776 356.505 385.99 288.157 385.374 218.282Z" class="selected" fill="url(#lorc-crested-helmet-gradient-4)"></path></g></g></svg>