<svg xmlns="http://www.w3.org/2000/svg" viewBox="0 0 512 512" style="height: 512px; width: 512px;"><defs><linearGradient x1="0" x2="1" y1="1" y2="0" id="delapouite-galea-gradient-1"><stop offset="0%" stop-color="#9b9b9b" stop-opacity="1"></stop><stop offset="100%" stop-color="#3f3f3f" stop-opacity="1"></stop></linearGradient><linearGradient x1="0" x2="1" y1="1" y2="0" id="delapouite-galea-gradient-2"><stop offset="0%" stop-color="#f50000" stop-opacity="1"></stop><stop offset="100%" stop-color="#8b572a" stop-opacity="1"></stop></linearGradient><linearGradient x1="0" x2="1" y1="1" y2="0" id="delapouite-galea-gradient-3"><stop offset="0%" stop-color="#9b9b9b" stop-opacity="1"></stop><stop offset="100%" stop-color="#3f3f3f" stop-opacity="1"></stop></linearGradient><linearGradient x1="0" x2="1" y1="1" y2="0" id="delapouite-galea-gradient-4"><stop offset="0%" stop-color="#9b9b9b" stop-opacity="1"></stop><stop offset="100%" stop-color="#3f3f3f" stop-opacity="1"></stop></linearGradient><linearGradient x1="0" x2="1" y1="1" y2="0" id="delapouite-galea-gradient-5"><stop offset="0%" stop-color="#9b9b9b" stop-opacity="1"></stop><stop offset="100%" stop-color="#3f3f3f" stop-opacity="1"></stop></linearGradient><linearGradient x1="0" x2="1" y1="1" y2="0" id="delapouite-galea-gradient-6"><stop offset="0%" stop-color="#9b9b9b" stop-opacity="1"></stop><stop offset="100%" stop-color="#3f3f3f" stop-opacity="1"></stop></linearGradient><linearGradient x1="0" x2="1" y1="1" y2="0" id="delapouite-galea-gradient-7"><stop offset="0%" stop-color="#9b9b9b" stop-opacity="1"></stop><stop offset="100%" stop-color="#3f3f3f" stop-opacity="1"></stop></linearGradient><linearGradient x1="0" x2="1" y1="1" y2="0" id="delapouite-galea-gradient-8"><stop offset="0%" stop-color="#9b9b9b" stop-opacity="1"></stop><stop offset="100%" stop-color="#3f3f3f" stop-opacity="1"></stop></linearGradient><linearGradient x1="0" x2="1" y1="1" y2="0" id="delapouite-galea-gradient-9"><stop offset="0%" stop-color="#9b9b9b" stop-opacity="1"></stop><stop offset="100%" stop-color="#3f3f3f" stop-opacity="1"></stop></linearGradient><linearGradient x1="0" x2="1" y1="1" y2="0" id="delapouite-galea-gradient-10"><stop offset="0%" stop-color="#9b9b9b" stop-opacity="1"></stop><stop offset="100%" stop-color="#3f3f3f" stop-opacity="1"></stop></linearGradient><linearGradient x1="0" x2="1" y1="1" y2="0" id="delapouite-galea-gradient-11"><stop offset="0%" stop-color="#9b9b9b" stop-opacity="1"></stop><stop offset="100%" stop-color="#3f3f3f" stop-opacity="1"></stop></linearGradient><linearGradient x1="0" x2="1" y1="1" y2="0" id="delapouite-galea-gradient-12"><stop offset="0%" stop-color="#9b9b9b" stop-opacity="1"></stop><stop offset="100%" stop-color="#3f3f3f" stop-opacity="1"></stop></linearGradient></defs><g class="" transform="translate(0,0)" style=""><g><path d="M300.042 21.781L284.59 25.104C285.581 36.15 285.814 47.292 284.985 58.508C288.232 58.304 291.481 58.154 294.733 58.058C299.28 57.925 303.757 57.918 308.167 58.026C302.263 46.986 299.867 34.536 300.042 21.781Z" class="selected" fill="url(#delapouite-galea-gradient-2)"></path><path d="M304.116 73.951C301.186 73.93 298.216 73.964 295.204 74.053C258.584 75.133 223.42 82.437 197.042 110.485C171.142 138.024 152.72 187.023 152.497 273.758C164.507 282.648 182.577 287.97 198.645 287.014L199.596 302.987C180.325 304.134 160.101 298.705 144.756 287.934C123.334 301.596 95.897 320.956 73.522 338.724C61.642 348.159 51.187 357.156 43.982 364.383C40.378 367.997 37.588 371.193 35.938 373.513C34.881 375.001 34.552 376.119 34.418 376.326C34.784 379.457 37.522 386.831 43.702 394.877C50.235 403.383 60.197 412.862 73.483 421.164C100.055 437.77 139.829 449.871 193.423 441.545C198.282 440.79 201.091 440.68 202.593 440.02C204.094 439.36 205.839 438.23 208.755 432.342C214.586 420.564 222.189 391.729 232.448 329.944C234.278 318.923 232.918 302.012 234.006 286.406C234.551 278.604 235.694 270.979 238.93 264.1C242.167 257.22 248.139 251.108 256.395 248.608C261.156 247.165 271.157 242.776 282.135 246.52C287.625 248.392 292.883 252.625 296.561 258.94C299.993 264.832 302.281 272.535 303.601 282.57C304.007 282.74 304.196 282.88 305.288 283.102C308.648 283.784 314.677 284.007 321.993 283.472C336.625 282.405 356.668 278.595 376.499 272.965C396.329 267.335 416.068 259.837 430.212 251.826C437.283 247.821 442.93 243.658 446.407 239.963C449.883 236.268 450.903 233.471 450.857 231.639C450.423 214.887 448.657 199.537 445.663 185.553C391.152 210.08 324.246 215.134 273.542 212.877L274.255 196.893C331.082 199.423 409.543 191.524 462.438 158.578C456.313 146.724 440.947 133.57 428.981 130.973C361.161 160.641 319.423 166.285 291.184 159.783C262.87 153.264 249.907 133.686 241.715 119.74L233.61 105.942L249.512 107.74C291.44 112.482 324.431 107.297 345.409 88.701C348.748 85.742 352.514 83.303 356.581 81.467C340.911 76.621 323.401 74.093 304.116 73.951Z" class="" fill="url(#delapouite-galea-gradient-3)"></path><path d="M375.848 93.252C368.855 93.379 361.774 95.577 356.022 100.676C333.327 120.794 301.389 127.071 264.313 125.037C270.863 133.447 279.656 140.711 294.774 144.192C316.668 149.232 353.384 145.589 415.12 119.512C412.717 116.651 410.18 113.905 407.518 111.283C401.024 104.902 393.833 99.327 385.973 94.559C384.234 94.055 382.457 93.696 380.659 93.485C379.063 93.302 377.456 93.224 375.849 93.252Z" class="" fill="url(#delapouite-galea-gradient-4)"></path><path d="M384.188 238.703C389.159 238.703 393.188 242.732 393.188 247.703C393.188 252.674 389.159 256.703 384.188 256.703C379.217 256.703 375.188 252.674 375.188 247.703C375.188 242.732 379.217 238.703 384.188 238.703Z" class="" fill="url(#delapouite-galea-gradient-5)"></path><path d="M324.465 249.965C329.436 249.965 333.465 253.994 333.465 258.965C333.465 263.936 329.436 267.965 324.465 267.965C319.494 267.965 315.465 263.936 315.465 258.965C315.465 253.994 319.494 249.965 324.465 249.965Z" class="" fill="url(#delapouite-galea-gradient-6)"></path><path d="M417.631 275.655C411.364 278.285 404.771 280.738 398.031 283.015C397.169 298.285 399.46 322.411 403.786 345.845C408.696 372.441 416.336 398.897 423.066 411.656L425.899 417.031L421.483 421.203C408.367 433.594 403.554 450.403 400.44 468.018L398.067 481.438L387.507 472.826C370.529 458.981 362.977 452.394 340.647 442.481L333.561 439.334L336.483 432.153C340.743 421.684 341.619 392.259 338.758 363.414C336.346 339.087 331.655 314.229 327.038 299.096C325.746 299.222 324.452 299.333 323.157 299.43C317.249 299.861 311.963 299.952 307.239 299.514C309.651 315.067 311.882 331.294 318.094 348.33C322.26 359.753 307.708 369.322 296.374 377.658C283.692 386.986 303.429 452.007 327.276 469.664C378.219 507.386 477.211 485.846 477.575 463.344C478.149 427.894 440.905 423.35 442.458 410.668C445.286 387.562 471.541 368.408 460.016 349.565C449.625 332.575 440.352 339.831 427.71 336.221C420.315 316.032 418.875 295.843 417.631 275.655Z" class="" fill="url(#delapouite-galea-gradient-7)"></path><path d="M381.8 288.08C381.49 288.17 381.18 288.267 380.869 288.356C367.941 292.026 355.013 294.965 343.159 296.946C348.187 314.031 352.299 337.816 354.681 361.834C357.274 387.97 358.228 413.309 353.636 431.035C367.841 437.883 377.379 444.258 387.449 452.229C390.755 438.909 396.172 425.331 406.559 413.769C399.098 397.447 392.649 373.655 388.052 348.75C384.047 327.053 381.487 305.328 381.8 288.08Z" class="" fill="url(#delapouite-galea-gradient-8)"></path><path d="M436.138 356.016C441.109 356.016 445.138 360.045 445.138 365.016C445.138 369.987 441.109 374.016 436.138 374.016C431.167 374.016 427.138 369.987 427.138 365.016C427.138 360.045 431.167 356.016 436.138 356.016Z" class="" fill="url(#delapouite-galea-gradient-9)"></path><path d="M322.359 390.432C327.33 390.432 331.359 394.461 331.359 399.432C331.359 404.403 327.33 408.432 322.359 408.432C317.388 408.432 313.359 404.403 313.359 399.432C313.359 394.461 317.388 390.432 322.359 390.432Z" class="" fill="url(#delapouite-galea-gradient-10)"></path><path d="M189.619 407.988C194.59 407.988 198.619 412.017 198.619 416.988C198.619 421.959 194.59 425.988 189.619 425.988C184.648 425.988 180.619 421.959 180.619 416.988C180.619 412.017 184.648 407.988 189.619 407.988Z" class="" fill="url(#delapouite-galea-gradient-11)"></path><path d="M447.375 443.808C452.346 443.808 456.375 447.837 456.375 452.808C456.375 457.779 452.346 461.808 447.375 461.808C442.404 461.808 438.375 457.779 438.375 452.808C438.375 447.837 442.404 443.808 447.375 443.808Z" class="" fill="url(#delapouite-galea-gradient-12)"></path></g></g></svg>