<svg xmlns="http://www.w3.org/2000/svg" viewBox="0 0 512 512" style="height: 512px; width: 512px;"><defs><linearGradient x1="0" x2="1" y1="0" y2="1" id="lorc-curvy-knife-gradient-2"><stop offset="0%" stop-color="#c9c9c9" stop-opacity="1"></stop><stop offset="100%" stop-color="#4a4a4a" stop-opacity="1"></stop></linearGradient><linearGradient x1="0" x2="1" y1="1" y2="0" id="lorc-curvy-knife-gradient-3"><stop offset="0%" stop-color="#b57204" stop-opacity="1"></stop><stop offset="100%" stop-color="#8b572a" stop-opacity="1"></stop></linearGradient><linearGradient x1="0" x2="1" y1="1" y2="0" id="lorc-curvy-knife-gradient-4"><stop offset="0%" stop-color="#b57204" stop-opacity="1"></stop><stop offset="100%" stop-color="#8b572a" stop-opacity="1"></stop></linearGradient><linearGradient x1="0" x2="1" y1="0" y2="1" id="lorc-curvy-knife-gradient-5"><stop offset="0%" stop-color="#4a4a4a" stop-opacity="1"></stop><stop offset="100%" stop-color="#9b9b9b" stop-opacity="1"></stop></linearGradient></defs><g class="" transform="translate(0,0)" style=""><g><path d="M57.656 16.156C42.71 16.533 31.24 29.793 24.5 44.813C6.05 85.91 32.88 81.803 71.156 90.374C79.272 66.585 86.96 48.042 94.72 31.53C87.197 27.1 79.315 22.944 71 19.126C66.292 16.964 61.842 16.052 57.656 16.156Z" class="" fill="url(#lorc-curvy-knife-gradient-2)"></path><path d="M110.563 41.656C103.537 56.786 96.618 73.732 89.219 95.344C99.387 98.754 109.942 103.501 120.374 110.438C132.054 98.226 143.83 88.94 155.654 81.375C142.367 66.775 127.502 53.408 110.561 41.655Z" class="" fill="url(#lorc-curvy-knife-gradient-3)"></path><path d="M167.843 95.626C156.779 102.43 146.006 110.726 135.125 121.969C146.541 132.314 157.497 145.913 167.25 164.093C175.19 151.067 183.84 140.363 192.875 130.968C185.153 118.688 176.878 106.858 167.845 95.623Z" class="" fill="url(#lorc-curvy-knife-gradient-4)"></path><path d="M272.719 102.281C250.896 111.737 230.111 122.911 212.811 137.407C212.688 137.524 212.561 137.634 212.436 137.751C198.966 150.491 186.843 165.197 176.156 186.471C173.856 192.148 171.919 198.149 170.436 204.501C191.926 270.978 235.186 331.414 289.936 376.595C323.148 413.598 369.42 443.682 419.406 465.625C300.828 433.35 196.2 335.897 155.124 217.563C141.837 224.398 127.194 228.741 113.094 229.188C190.847 414.578 369.987 548.372 495.374 467.845C333.914 412.595 303.039 262.855 238.094 141.501C250.599 133.194 264.807 126.057 280.154 119.407L272.718 102.282Z" class="selected" fill="url(#lorc-curvy-knife-gradient-5)"></path></g></g></svg>